{
  "accessors": [
    {
      "bufferView": 0,
      "componentType": 5126,
      "count": 3593,
      "max": [
        1.2594175338745117,
        1.4216443300247192,
        1.238413691520691
      ],
      "min": [
        -1.1520600318908691,
        -1.4216400384902954,
        -0.046383701264858246
      ],
      "type": "VEC3"
    },
    {
      "bufferView": 1,
      "componentType": 5125,
      "count": 9290,
      "type": "SCALAR"
    },
    {
      "bufferView": 2,
      "componentType": 5126,
      "count": 3593,
      "type": "VEC3"
    },
    {
      "bufferView": 3,
      "componentType": 5126,
      "count": 3593,
      "type": "VEC4"
    },
    {
      "bufferView": 4,
      "componentType": 5126,
      "count": 3593,
      "type": "VEC2"
    }
  ],
  "asset": {
    "version": "2.0"
  },
  "bufferViews": [
    {
      "buffer": 0,
      "byteLength": 43116,
      "target": 34962
    },
    {
      "buffer": 1,
      "byteLength": 37160,
      "target": 34963
    },
    {
      "buffer": 2,
      "byteLength": 43116,
      "target": 34962
    },
    {
      "buffer": 3,
      "byteLength": 57488,
      "target": 34962
    },
    {
      "buffer": 4,
      "byteLength": 28744,
      "target": 34962
    }
  ],
  "buffers": [
    {
      "byteLength": 43116,
      "uri": "data:application/octet-stream;base64,"
    },
    {
      "byteLength": 37160,
      "uri": "data:application/octet-stream;base64,"
    },
    {
      "byteLength": 43116,
      "uri": "data:application/octet-stream;base64,"
    },
    {
      "byteLength": 57488,
      "uri": "data:application/octet-stream;base64,"
    },
    {
      "byteLength": 28744,
      "uri": "data:application/octet-stream;base64,"
    }
  ],
  "extensionsUsed": [
    "KHR_materials_emissive_strength"
  ],
  "images": [
    {
      "uri": "textures/Nail_Dryer_Roughness.comb.png"
    },
    {
      "uri": "textures/Nail_Dryer_Base_Color.png"
    },
    {
      "uri": "textures/Nail_Dryer_Mixed_AO.png"
    },
    {
      "uri": "textures/Nail_Dryer_Normal_OpenGL.png"
    }
  ],
  "materials": [
    {
      "doubleSided": true,
      "extensions": {
        "KHR_materials_emissive_strength": {
          "emissiveStrength": 1.0
        }
      },
      "name": "Nail Dryer",
      "normalTexture": {
        "index": 3
      },
      "occlusionTexture": {
        "index": 2
      },
      "pbrMetallicRoughness": {
        "baseColorTexture": {
          "index": 1
        },
        "metallicRoughnessTexture": {
          "index": 0
        }
      }
    }
  ],
  "meshes": [
    {
      "name": "Nail Dryer_Nail Dryer_0",
      "primitives": [
        {
          "attributes": {
            "NORMAL": 2,
            "POSITION": 0,
            "TANGENT": 3,
            "TEXCOORD_0": 4
          },
          "indices": 1,
          "material": 0,
          "mode": 5
        }
      ]
    }
  ],
  "nodes": [
    {
      "mesh": 0,
      "name": "Nail Dryer_Nail Dryer_0"
    },
    {
      "children": [
        0
      ],
      "name": "Nail Dryer",
      "rotation": [
        -0.7071068387878171,
        0.0,
        0.0,
        0.7071067235852733
      ],
      "scale": [
        100.0,
        100.0,
        100.0
      ],
      "translation": [
        0.0,
        0.0,
        0.0
      ]
    },
    {
      "children": [
        1
      ],
      "name": "RootNode"
    },
    {
      "children": [
        2
      ],
      "name": "Nail Dryer",
      "rotation": [
        1.1102230246251565e-16,
        0.0,
        0.0,
        1.0
      ],
      "scale": [
        0.009999999776482582,
        0.009999999776482582,
        0.009999999776482582
      ],
      "translation": [
        0.0,
        0.0,
        0.0
      ]
    }
  ],
  "samplers": [
    {
      "magFilter": 9729,
      "minFilter": 9987,
      "wrapS": 10497,
      "wrapT": 10497
    },
    {
      "magFilter": 9729,
      "minFilter": 9987,
      "wrapS": 10497,
      "wrapT": 10497
    },
    {
      "magFilter": 9729,
      "minFilter": 9987,
      "wrapS": 10497,
      "wrapT": 10497
    },
    {
      "magFilter": 9729,
      "minFilter": 9987,
      "wrapS": 10497,
      "wrapT": 10497
    }
  ],
  "scene": 0,
  "scenes": [
    {
      "nodes": [
        3
      ]
    }
  ],
  "textures": [
    {
      "sampler": 0,
      "source": 0
    },
    {
      "sampler": 1,
      "source": 1
    },
    {
      "sampler": 2,
      "source": 2
    },
    {
      "sampler": 3,
      "source": 3
    }
  ]
}
