{
  "accessors": [
    {
      "bufferView": 0,
      "componentType": 5126,
      "count": 4720,
      "max": [
        0.1545800268650055,
        0.532371997833252,
        0.5337817072868347
      ],
      "min": [
        -0.0885830968618393,
        -0.5323730111122131,
        -0.5337820053100586
      ],
      "type": "VEC3"
    },
    {
      "bufferView": 1,
      "componentType": 5125,
      "count": 8219,
      "type": "SCALAR"
    },
    {
      "bufferView": 2,
      "componentType": 5126,
      "count": 4720,
      "type": "VEC3"
    },
    {
      "bufferView": 3,
      "componentType": 5126,
      "count": 4720,
      "type": "VEC4"
    },
    {
      "bufferView": 4,
      "componentType": 5126,
      "count": 4720,
      "type": "VEC2"
    }
  ],
  "asset": {
    "version": "2.0"
  },
  "bufferViews": [
    {
      "buffer": 0,
      "byteLength": 56640,
      "target": 34962
    },
    {
      "buffer": 1,
      "byteLength": 32876,
      "target": 34963
    },
    {
      "buffer": 2,
      "byteLength": 56640,
      "target": 34962
    },
    {
      "buffer": 3,
      "byteLength": 75520,
      "target": 34962
    },
    {
      "buffer": 4,
      "byteLength": 37760,
      "target": 34962
    }
  ],
  "buffers": [
    {
      "byteLength": 56640,
      "uri": "data:application/octet-stream;base64,"
    },
    {
      "byteLength": 32876,
      "uri": "data:application/octet-stream;base64,"
    },
    {
      "byteLength": 56640,
      "uri": "data:application/octet-stream;base64,"
    },
    {
      "byteLength": 75520,
      "uri": "data:application/octet-stream;base64,"
    },
    {
      "byteLength": 37760,
      "uri": "data:application/octet-stream;base64,"
    }
  ],
  "extensionsUsed": [
    "KHR_materials_emissive_strength",
    "KHR_materials_specular"
  ],
  "images": [
    {
      "uri": "textures/Aegis_Roughness.comb.png"
    },
    {
      "uri": "textures/Aegis_Base_color.png"
    },
    {
      "uri": "textures/Aegis_Mixed_AO.png"
    },
    {
      "uri": "textures/Aegis_Normal_OpenGL.png"
    }
  ],
  "materials": [
    {
      "doubleSided": true,
      "extensions": {
        "KHR_materials_emissive_strength": {
          "emissiveStrength": 1.0
        },
        "KHR_materials_specular": {
          "specularFactor": 0.0
        }
      },
      "name": "Material.001",
      "normalTexture": {
        "index": 3
      },
      "occlusionTexture": {
        "index": 2
      },
      "pbrMetallicRoughness": {
        "baseColorTexture": {
          "index": 1
        },
        "metallicRoughnessTexture": {
          "index": 0
        }
      }
    }
  ],
  "meshes": [
    {
      "name": "Aegis_Material.001_0",
      "primitives": [
        {
          "attributes": {
            "NORMAL": 2,
            "POSITION": 0,
            "TANGENT": 3,
            "TEXCOORD_0": 4
          },
          "indices": 1,
          "material": 0,
          "mode": 5
        }
      ]
    }
  ],
  "nodes": [
    {
      "mesh": 0,
      "name": "Aegis_Material.001_0"
    },
    {
      "children": [
        0
      ],
      "name": "Aegis",
      "rotation": [
        -0.7071068387878171,
        0.0,
        0.0,
        0.7071067235852733
      ],
      "scale": [
        100.0,
        100.0,
        100.0
      ],
      "translation": [
        0.0,
        0.0,
        0.0
      ]
    },
    {
      "children": [
        1
      ],
      "name": "RootNode"
    },
    {
      "children": [
        2
      ],
      "name": "Aegis",
      "rotation": [
        1.1102230246251565e-16,
        0.0,
        0.0,
        1.0
      ],
      "scale": [
        0.009999999776482582,
        0.009999999776482582,
        0.009999999776482582
      ],
      "translation": [
        0.0,
        0.0,
        0.0
      ]
    }
  ],
  "samplers": [
    {
      "magFilter": 9729,
      "minFilter": 9987,
      "wrapS": 10497,
      "wrapT": 10497
    },
    {
      "magFilter": 9729,
      "minFilter": 9987,
      "wrapS": 10497,
      "wrapT": 10497
    },
    {
      "magFilter": 9729,
      "minFilter": 9987,
      "wrapS": 10497,
      "wrapT": 10497
    },
    {
      "magFilter": 9729,
      "minFilter": 9987,
      "wrapS": 10497,
      "wrapT": 10497
    }
  ],
  "scene": 0,
  "scenes": [
    {
      "nodes": [
        3
      ]
    }
  ],
  "textures": [
    {
      "sampler": 0,
      "source": 0
    },
    {
      "sampler": 1,
      "source": 1
    },
    {
      "sampler": 2,
      "source": 2
    },
    {
      "sampler": 3,
      "source": 3
    }
  ]
}
