{
  "accessors": [
    {
      "bufferView": 0,
      "componentType": 5126,
      "count": 50,
      "max": [
        1.0126744508743286,
        9.31832504272461,
        12.23510456085205
      ],
      "min": [
        -1.0763299465179443,
        -3.819730043411255,
        10.146100044250488
      ],
      "type": "VEC3"
    },
    {
      "bufferView": 1,
      "componentType": 5125,
      "count": 97,
      "type": "SCALAR"
    },
    {
      "bufferView": 2,
      "componentType": 5126,
      "count": 50,
      "type": "VEC3"
    },
    {
      "bufferView": 3,
      "componentType": 5126,
      "count": 50,
      "type": "VEC4"
    },
    {
      "bufferView": 4,
      "componentType": 5126,
      "count": 50,
      "type": "VEC2"
    },
    {
      "bufferView": 5,
      "componentType": 5126,
      "count": 20776,
      "max": [
        1.747616171836853,
        21.69664192199707,
        12.72923469543457
      ],
      "min": [
        -2.807389974594116,
        -32.10710144042969,
        2.6270699501037598
      ],
      "type": "VEC3"
    },
    {
      "bufferView": 6,
      "componentType": 5125,
      "count": 39082,
      "type": "SCALAR"
    },
    {
      "bufferView": 7,
      "componentType": 5126,
      "count": 20776,
      "type": "VEC3"
    },
    {
      "bufferView": 8,
      "componentType": 5126,
      "count": 20776,
      "type": "VEC4"
    },
    {
      "bufferView": 9,
      "componentType": 5126,
      "count": 20776,
      "type": "VEC2"
    },
    {
      "bufferView": 10,
      "componentType": 5126,
      "count": 20776,
      "max": [
        1.747616171836853,
        21.69664192199707,
        12.72923469543457
      ],
      "min": [
        -2.807389974594116,
        -32.10710144042969,
        2.6270699501037598
      ],
      "type": "VEC3"
    },
    {
      "bufferView": 11,
      "componentType": 5125,
      "count": 1119,
      "type": "SCALAR"
    },
    {
      "bufferView": 12,
      "componentType": 5126,
      "count": 20776,
      "type": "VEC3"
    },
    {
      "bufferView": 13,
      "componentType": 5126,
      "count": 20776,
      "type": "VEC4"
    },
    {
      "bufferView": 14,
      "componentType": 5126,
      "count": 20776,
      "type": "VEC2"
    }
  ],
  "asset": {
    "version": "2.0"
  },
  "bufferViews": [
    {
      "buffer": 0,
      "byteLength": 600,
      "target": 34962
    },
    {
      "buffer": 1,
      "byteLength": 388,
      "target": 34963
    },
    {
      "buffer": 2,
      "byteLength": 600,
      "target": 34962
    },
    {
      "buffer": 3,
      "byteLength": 800,
      "target": 34962
    },
    {
      "buffer": 4,
      "byteLength": 400,
      "target": 34962
    },
    {
      "buffer": 5,
      "byteLength": 249312,
      "target": 34962
    },
    {
      "buffer": 6,
      "byteLength": 156328,
      "target": 34963
    },
    {
      "buffer": 7,
      "byteLength": 249312,
      "target": 34962
    },
    {
      "buffer": 8,
      "byteLength": 332416,
      "target": 34962
    },
    {
      "buffer": 9,
      "byteLength": 166208,
      "target": 34962
    },
    {
      "buffer": 5,
      "byteLength": 249312,
      "target": 34962
    },
    {
      "buffer": 10,
      "byteLength": 4476,
      "target": 34963
    },
    {
      "buffer": 7,
      "byteLength": 249312,
      "target": 34962
    },
    {
      "buffer": 8,
      "byteLength": 332416,
      "target": 34962
    },
    {
      "buffer": 9,
      "byteLength": 166208,
      "target": 34962
    }
  ],
  "buffers": [
    {
      "byteLength": 600,
      "uri": "data:application/octet-stream;base64,"
    },
    {
      "byteLength": 388,
      "uri": "data:application/octet-stream;base64,"
    },
    {
      "byteLength": 600,
      "uri": "data:application/octet-stream;base64,"
    },
    {
      "byteLength": 800,
      "uri": "data:application/octet-stream;base64,"
    },
    {
      "byteLength": 400,
      "uri": "data:application/octet-stream;base64,"
    },
    {
      "byteLength": 249312,
      "uri": "data:application/octet-stream;base64,"
    },
    {
      "byteLength": 156328,
      "uri": "data:application/octet-stream;base64,"
    },
    {
      "byteLength": 249312,
      "uri": "data:application/octet-stream;base64,"
    },
    {
      "byteLength": 332416,
      "uri": "data:application/octet-stream;base64,"
    },
    {
      "byteLength": 166208,
      "uri": "data:application/octet-stream;base64,"
    },
    {
      "byteLength": 4476,
      "uri": "data:application/octet-stream;base64,"
    }
  ],
  "extensionsUsed": [
    "KHR_materials_emissive_strength"
  ],
  "images": [
    {
      "uri": "textures/dragon_awp.png"
    }
  ],
  "materials": [
    {
      "alphaMode": "BLEND",
      "doubleSided": true,
      "emissiveFactor": [
        1.0,
        1.0,
        1.0
      ],
      "extensions": {
        "KHR_materials_emissive_strength": {
          "emissiveStrength": 0.0
        }
      },
      "name": "Material.003",
      "pbrMetallicRoughness": {
        "baseColorFactor": [
          1.0,
          1.0,
          1.0,
          0.949999988079071
        ],
        "metallicFactor": 0.0,
        "roughnessFactor": 0.20000000298023224
      }
    },
    {
      "alphaMode": "MASK",
      "doubleSided": true,
      "emissiveFactor": [
        1.0,
        1.0,
        1.0
      ],
      "extensions": {
        "KHR_materials_emissive_strength": {
          "emissiveStrength": 0.0
        }
      },
      "name": "Material.004",
      "pbrMetallicRoughness": {
        "baseColorTexture": {
          "index": 0
        },
        "metallicFactor": 0.0,
        "roughnessFactor": 0.20000000298023224
      }
    }
  ],
  "meshes": [
    {
      "primitives": [
        {
          "attributes": {
            "NORMAL": 2,
            "POSITION": 0,
            "TANGENT": 3,
            "TEXCOORD_0": 4
          },
          "indices": 1,
          "material": 0,
          "mode": 5
        }
      ]
    },
    {
      "primitives": [
        {
          "attributes": {
            "NORMAL": 7,
            "POSITION": 5,
            "TANGENT": 8,
            "TEXCOORD_0": 9
          },
          "indices": 6,
          "material": 1,
          "mode": 5
        },
        {
          "attributes": {
            "NORMAL": 12,
            "POSITION": 10,
            "TANGENT": 13,
            "TEXCOORD_0": 14
          },
          "indices": 11,
          "material": 1,
          "mode": 4
        }
      ]
    }
  ],
  "nodes": [
    {
      "mesh": 0,
      "name": "_gltfNode_0"
    },
    {
      "mesh": 1,
      "name": "_gltfNode_1"
    },
    {
      "children": [
        0,
        1
      ],
      "name": "GLTF Converted Scene",
      "rotation": [
        -0.7071067811865475,
        0.0,
        0.0,
        0.7071067811865476
      ],
      "scale": [
        1.0,
        1.0,
        1.0
      ],
      "translation": [
        0.0,
        0.0,
        0.0
      ]
    }
  ],
  "samplers": [
    {
      "magFilter": 9729,
      "minFilter": 9987,
      "wrapS": 10497,
      "wrapT": 10497
    }
  ],
  "scene": 0,
  "scenes": [
    {
      "nodes": [
        2
      ]
    }
  ],
  "textures": [
    {
      "sampler": 0,
      "source": 0
    }
  ]
}
